<svg width="183" height="60" viewBox="0 0 183 60" fill="none" xmlns="http://www.w3.org/2000/svg">
<path d="M72.324 28V8.4H76.076L87.64 22.512H85.82V8.4H90.3V28H86.576L74.984 13.888H76.804V28H72.324ZM105.045 28.336C102.264 28.336 100.089 27.5613 98.5213 26.012C96.9533 24.4627 96.1693 22.2507 96.1693 19.376V8.4H100.705V19.208C100.705 21.0747 101.088 22.4187 101.853 23.24C102.619 24.0613 103.692 24.472 105.073 24.472C106.455 24.472 107.528 24.0613 108.293 23.24C109.059 22.4187 109.441 21.0747 109.441 19.208V8.4H113.921V19.376C113.921 22.2507 113.137 24.4627 111.569 26.012C110.001 27.5613 107.827 28.336 105.045 28.336ZM123.864 23.52L123.612 18.284L132.992 8.4H138.032L129.576 17.5L127.056 20.188L123.864 23.52ZM119.804 28V8.4H124.312V28H119.804ZM133.216 28L126.244 19.46L129.212 16.24L138.508 28H133.216ZM146.102 16.296H155.538V19.824H146.102V16.296ZM146.438 24.36H157.106V28H141.93V8.4H156.742V12.04H146.438V24.36ZM162.115 28V8.4H171.019C173.147 8.4 175.023 8.81067 176.647 9.632C178.271 10.4347 179.541 11.564 180.455 13.02C181.37 14.476 181.827 16.2027 181.827 18.2C181.827 20.1787 181.37 21.9053 180.455 23.38C179.541 24.836 178.271 25.9747 176.647 26.796C175.023 27.5987 173.147 28 171.019 28H162.115ZM166.651 24.276H170.795C172.102 24.276 173.231 24.0333 174.183 23.548C175.154 23.044 175.901 22.3347 176.423 21.42C176.965 20.5053 177.235 19.432 177.235 18.2C177.235 16.9493 176.965 15.876 176.423 14.98C175.901 14.0653 175.154 13.3653 174.183 12.88C173.231 12.376 172.102 12.124 170.795 12.124H166.651V24.276Z" fill="#FAFF00"/>
<path d="M96.42 54.1C95.3667 54.1 94.3933 53.9267 93.5 53.58C92.6067 53.22 91.8267 52.72 91.16 52.08C90.5067 51.44 90 50.6933 89.64 49.84C89.28 48.9733 89.1 48.0267 89.1 47C89.1 45.9733 89.28 45.0333 89.64 44.18C90 43.3133 90.5133 42.56 91.18 41.92C91.8467 41.28 92.62 40.7867 93.5 40.44C94.3933 40.08 95.3733 39.9 96.44 39.9C97.4533 39.9 98.3933 40.06 99.26 40.38C100.127 40.7 100.867 41.18 101.48 41.82L100.84 42.5C100.227 41.9 99.5533 41.4733 98.82 41.22C98.1 40.9667 97.3133 40.84 96.46 40.84C95.5533 40.84 94.7133 40.9933 93.94 41.3C93.1667 41.6067 92.4933 42.04 91.92 42.6C91.3467 43.16 90.9 43.8133 90.58 44.56C90.2733 45.3067 90.12 46.12 90.12 47C90.12 47.88 90.2733 48.6933 90.58 49.44C90.9 50.1867 91.3467 50.84 91.92 51.4C92.4933 51.96 93.1667 52.3933 93.94 52.7C94.7133 53.0067 95.5533 53.16 96.46 53.16C97.2867 53.16 98.0667 53.0333 98.8 52.78C99.5467 52.5267 100.227 52.1067 100.84 51.52L101.42 52.3C100.793 52.9 100.04 53.3533 99.16 53.66C98.2933 53.9533 97.38 54.1 96.42 54.1ZM100.44 52.2V47.06H101.42V52.3L100.44 52.2ZM108.569 54L115.009 40H116.029L122.469 54H121.369L115.289 40.64H115.729L109.669 54H108.569ZM110.929 50.06L111.269 49.2H119.649L119.989 50.06H110.929ZM130.01 54V40H130.87L137.37 51.22H136.91L143.39 40H144.23L144.25 54H143.25L143.23 41.54H143.51L137.37 52.14H136.87L130.71 41.54H131.01V54H130.01ZM155.031 46.44H162.611V47.34H155.031V46.44ZM155.151 53.08H163.791V54H154.131V40H163.491V40.92H155.151V53.08Z" fill="white"/>
<rect width="60" height="60" rx="20" fill="black"/>
<path d="M16.28 44V16H24.04L38.28 33.04H34.68V16H43.88V44H36.12L21.88 26.96H25.48V44H16.28Z" fill="#FAFF00"/>
</svg>
