<svg width="215" height="70" viewBox="0 0 215 70" fill="none" xmlns="http://www.w3.org/2000/svg">
<path d="M87.656 34V11.6H91.944L105.16 27.728H103.08V11.6H108.2V34H103.944L90.696 17.872H92.776V34H87.656ZM125.052 34.384C121.873 34.384 119.388 33.4987 117.596 31.728C115.804 29.9573 114.908 27.4293 114.908 24.144V11.6H120.092V23.952C120.092 26.0853 120.529 27.6213 121.404 28.56C122.278 29.4987 123.505 29.968 125.084 29.968C126.662 29.968 127.889 29.4987 128.764 28.56C129.638 27.6213 130.076 26.0853 130.076 23.952V11.6H135.196V24.144C135.196 27.4293 134.3 29.9573 132.508 31.728C130.716 33.4987 128.23 34.384 125.052 34.384ZM146.559 28.88L146.271 22.896L156.991 11.6H162.751L153.087 22L150.207 25.072L146.559 28.88ZM141.919 34V11.6H147.071V34H141.919ZM157.247 34L149.279 24.24L152.671 20.56L163.295 34H157.247ZM171.974 20.624H182.758V24.656H171.974V20.624ZM172.358 29.84H184.55V34H167.206V11.6H184.134V15.76H172.358V29.84ZM190.275 34V11.6H200.451C202.883 11.6 205.027 12.0693 206.883 13.008C208.739 13.9253 210.189 15.216 211.235 16.88C212.28 18.544 212.803 20.5173 212.803 22.8C212.803 25.0613 212.28 27.0347 211.235 28.72C210.189 30.384 208.739 31.6853 206.883 32.624C205.027 33.5413 202.883 34 200.451 34H190.275ZM195.459 29.744H200.195C201.688 29.744 202.979 29.4667 204.067 28.912C205.176 28.336 206.029 27.5253 206.627 26.48C207.245 25.4347 207.555 24.208 207.555 22.8C207.555 21.3707 207.245 20.144 206.627 19.12C206.029 18.0747 205.176 17.2747 204.067 16.72C202.979 16.144 201.688 15.856 200.195 15.856H195.459V29.744Z" fill="#FAFF00"/>
<path d="M113.104 61.12C111.84 61.12 110.672 60.912 109.6 60.496C108.528 60.064 107.592 59.464 106.792 58.696C106.008 57.928 105.4 57.032 104.968 56.008C104.536 54.968 104.32 53.832 104.32 52.6C104.32 51.368 104.536 50.24 104.968 49.216C105.4 48.176 106.016 47.272 106.816 46.504C107.616 45.736 108.544 45.144 109.6 44.728C110.672 44.296 111.848 44.08 113.128 44.08C114.344 44.08 115.472 44.272 116.512 44.656C117.552 45.04 118.44 45.616 119.176 46.384L118.408 47.2C117.672 46.48 116.864 45.968 115.984 45.664C115.12 45.36 114.176 45.208 113.152 45.208C112.064 45.208 111.056 45.392 110.128 45.76C109.2 46.128 108.392 46.648 107.704 47.32C107.016 47.992 106.48 48.776 106.096 49.672C105.728 50.568 105.544 51.544 105.544 52.6C105.544 53.656 105.728 54.632 106.096 55.528C106.48 56.424 107.016 57.208 107.704 57.88C108.392 58.552 109.2 59.072 110.128 59.44C111.056 59.808 112.064 59.992 113.152 59.992C114.144 59.992 115.08 59.84 115.96 59.536C116.856 59.232 117.672 58.728 118.408 58.024L119.104 58.96C118.352 59.68 117.448 60.224 116.392 60.592C115.352 60.944 114.256 61.12 113.104 61.12ZM117.928 58.84V52.672H119.104V58.96L117.928 58.84ZM127.683 61L135.411 44.2H136.635L144.363 61H143.043L135.747 44.968H136.275L129.003 61H127.683ZM130.515 56.272L130.923 55.24H140.979L141.387 56.272H130.515ZM153.412 61V44.2H154.444L162.244 57.664H161.692L169.468 44.2H170.476L170.5 61H169.3L169.276 46.048H169.612L162.244 58.768H161.644L154.252 46.048H154.612V61H153.412ZM183.438 51.928H192.534V53.008H183.438V51.928ZM183.582 59.896H193.95V61H182.358V44.2H193.59V45.304H183.582V59.896Z" fill="white"/>
<rect width="70" height="70" rx="20" fill="black"/>
<path d="M17.736 52V18.4H27.048L44.136 38.848H39.816V18.4H50.856V52H41.544L24.456 31.552H28.776V52H17.736Z" fill="#FAFF00"/>
</svg>
